<mxfile host="app.diagrams.net" modified="2024-02-15T11:20:12.617Z" agent="Mozilla/5.0 (Macintosh; Intel Mac OS X 10_15_7) AppleWebKit/537.36 (KHTML, like Gecko) Chrome/121.0.0.0 Safari/537.36" version="22.1.17" etag="lgm-13stpMPg08SQBbka" type="github">
  <diagram name="Pagina-1" id="89lIF_g8vlkyNR0CxiGq">
    <mxGraphModel>
      <root>
        <mxCell id="0" />
        <mxCell id="1" parent="0" />
      </root>
    </mxGraphModel>
  </diagram>
</mxfile>
